Coordinates
version=1
nRows=5
nColumns=40
inDegrees=yes

Units are S.I. units (second, meters, Newtons, ...)
Angles are in degrees.

endheader
time	pelvis_tilt	pelvis_list	pelvis_rotation	pelvis_tx	pelvis_ty	pelvis_tz	hip_flexion_r	hip_adduction_r	hip_rotation_r	knee_angle_r	knee_angle_r_beta	ankle_angle_r	subtalar_angle_r	mtp_angle_r	hip_flexion_l	hip_adduction_l	hip_rotation_l	knee_angle_l	knee_angle_l_beta	ankle_angle_l	subtalar_angle_l	mtp_angle_l	lumbar_extension	lumbar_bending	lumbar_rotation	arm_flex_r	arm_add_r	arm_rot_r	elbow_flex_r	pro_sup_r	wrist_flex_r	wrist_dev_r	arm_flex_l	arm_add_l	arm_rot_l	elbow_flex_l	pro_sup_l	wrist_flex_l	wrist_dev_l
      2.38000000	      2.20155030	     -3.39077105	      2.48699166	     -0.15950239	      0.89488112	      1.44914282	     -5.00276687	      5.45998757	    -18.76507958	    -19.26383184	     -0.33621729	     14.07256886	      4.31133695	     -5.35020874	     21.49521401	      3.10518709	     11.81942762	    -15.82824694	     -0.27625502	     -2.57701662	     -2.79661927	    -10.43776954	    -10.52722451	      4.91087238	      5.15776573	     16.70094685	    -11.25939481	     17.51377108	     21.09450895	     89.95437384	      0.00000000	      0.00000000	      2.18118546	      6.60121105	     -1.16540565	     25.45178966	     89.95437384	      0.00000000	      0.00000000
      2.39000000	      2.28388137	     -3.18024934	      2.25658258	     -0.15294439	      0.89435159	      1.44872241	     -5.43059797	      5.13302872	    -18.50662321	    -19.58147916	     -0.34176128	     14.33207712	      4.17004290	     -5.49795491	     21.17538261	      2.82138507	     12.48826267	    -14.58978071	     -0.25463971	     -2.67446514	     -2.70867557	    -10.27011166	    -10.73902407	      4.62584384	      5.15329857	     16.72471833	    -11.11690738	     17.86464447	     21.34631992	     89.95437384	      0.00000000	      0.00000000	      2.24556335	      6.24562597	     -0.12712986	     25.02631508	     89.95437384	      0.00000000	      0.00000000
      2.40000000	      2.09008668	     -3.35880389	      2.25628949	     -0.14629417	      0.89318154	      1.44823146	     -5.58764971	      5.26716251	    -18.44622653	    -19.77099980	     -0.34506904	     14.38174710	      4.11614117	     -5.49670044	     21.47401617	      2.91529663	     12.69675658	    -14.05628763	     -0.24532850	     -2.42684508	     -2.71674044	    -10.20287830	    -10.54963320	      4.78586611	      4.93356985	     16.70645880	    -10.90671111	     17.92216206	     21.44872519	     89.95437384	      0.00000000	      0.00000000	      2.08259594	      6.08900718	     -0.21336889	     24.68988406	     89.95437384	      0.00000000	      0.00000000
      2.41000000	      1.91327812	     -3.39214955	      1.99437460	     -0.13963263	      0.89225544	      1.44794337	     -5.68251469	      5.21055073	    -17.98209093	    -20.13444482	     -0.35141236	     14.46714161	      4.08104927	     -5.54106280	     21.47766968	      2.85421105	     12.50723204	    -13.30079899	     -0.23214274	     -2.24641804	     -3.00407608	    -10.18844627	    -10.41460550	      4.76498910	      5.04462890	     16.64273818	    -10.75916934	     18.07891292	     21.50131532	     89.95437384	      0.00000000	      0.00000000	      2.18618977	      5.88539321	     -0.22376895	     23.96853848	     89.95437384	      0.00000000	      0.00000000
      2.42000000	      1.72553950	     -3.48221696	      1.85261926	     -0.13267889	      0.89126974	      1.44754355	     -5.83462225	      5.21347891	    -17.81378779	    -20.39597466	     -0.35597691	     14.50170948	      3.98272306	     -5.52971877	     21.61838766	      2.89332639	     12.50692303	    -13.02019526	     -0.22724528	     -2.15750240	     -3.02776295	    -10.10531815	    -10.23726580	      4.79873936	      4.99043293	     16.51040109	    -10.59068016	     18.14121228	     21.62826365	     89.95437384	      0.00000000	      0.00000000	      2.07824211	      5.75483990	     -0.23835840	     23.56175455	     89.95437384	      0.00000000	      0.00000000
